<svg width="24" height="24" viewBox="0 0 24 24" fill="none" xmlns="http://www.w3.org/2000/svg">
<path d="M9.52082 12C9.52082 11.8888 9.54166 11.7813 9.58332 11.6775C9.62499 11.573 9.68055 11.4861 9.74999 11.4166L13.5833 7.58329C13.7361 7.43051 13.9305 7.35413 14.1667 7.35413C14.4028 7.35413 14.5972 7.43051 14.75 7.58329C14.9028 7.73607 14.9792 7.93051 14.9792 8.16663C14.9792 8.40274 14.9028 8.59718 14.75 8.74996L11.5 12L14.75 15.25C14.9028 15.4027 14.9792 15.5972 14.9792 15.8333C14.9792 16.0694 14.9028 16.2638 14.75 16.4166C14.5972 16.5694 14.4028 16.6458 14.1667 16.6458C13.9305 16.6458 13.7361 16.5694 13.5833 16.4166L9.74999 12.5833C9.66666 12.5 9.60777 12.4097 9.57332 12.3125C9.53832 12.2152 9.52082 12.1111 9.52082 12Z" fill="white"/>
</svg>
